<?xml version="1.0" encoding="UTF-8"?>
<svg width="29px" height="30px" viewBox="0 0 29 30" version="1.1" xmlns="http://www.w3.org/2000/svg" xmlns:xlink="http://www.w3.org/1999/xlink">
    <title>Fill 7</title>
    <g id="Page-1" stroke="none" stroke-width="1" fill="none" fill-rule="evenodd">
        <g id="Tree-Page-Copy" transform="translate(-182.000000, -656.000000)" fill="#5B7129">
            <g id="Group-32" transform="translate(108.000000, 602.000000)">
                <g id="Group-31" transform="translate(30.000000, 54.900000)">
                    <path d="M62.4277,14.1084 L59.9627,14.1084 L59.9627,22.4184 L56.6377,22.4184 L56.6377,14.1084 L54.9737,14.1084 L54.9737,10.7854 L56.6247,10.7854 L56.6247,9.2824 C56.6247,7.9214 57.2707,5.7994 60.1217,5.7994 L62.6887,5.8084 L62.6887,8.6564 L60.8257,8.6564 C60.5197,8.6564 60.0907,8.8054 60.0907,9.4554 L60.0907,10.7854 L62.7337,10.7854 L62.4277,14.1084 Z M58.8507,0.0774 C51.1047,0.0774 44.8237,6.3574 44.8237,14.1064 C44.8237,21.8524 51.1047,28.1384 58.8507,28.1384 C66.6067,28.1384 72.8837,21.8524 72.8837,14.1064 C72.8837,6.3574 66.6067,0.0774 58.8507,0.0774 L58.8507,0.0774 Z" id="Fill-7"></path>
                </g>
            </g>
        </g>
    </g>
</svg>