<?xml version="1.0" encoding="UTF-8"?>
<svg width="30px" height="30px" viewBox="0 0 30 30" version="1.1" xmlns="http://www.w3.org/2000/svg" xmlns:xlink="http://www.w3.org/1999/xlink">
    <title>Group 9</title>
    <g id="Page-1" stroke="none" stroke-width="1" fill="none" fill-rule="evenodd">
        <g id="Tree-Page-Copy" transform="translate(-138.000000, -656.000000)" fill="#5B7129">
            <g id="Group-32" transform="translate(108.000000, 602.000000)">
                <g id="Group-31" transform="translate(30.000000, 54.900000)">
                    <g id="Group-9" transform="translate(0.929100, 0.077200)">
                        <path d="M13.8946,11.4902 C12.4956,11.4902 11.3586,12.6292 11.3586,14.0312 C11.3586,15.4322 12.4956,16.5672 13.8946,16.5672 C15.2976,16.5672 16.4356,15.4322 16.4356,14.0312 C16.4356,12.6292 15.2976,11.4902 13.8946,11.4902" id="Fill-1"></path>
                        <path d="M17.9625,10.8769 C17.4585,10.8769 17.0455,10.4709 17.0455,9.9639 C17.0455,9.4589 17.4585,9.0519 17.9625,9.0519 C18.4675,9.0519 18.8745,9.4589 18.8745,9.9639 C18.8745,10.4709 18.4675,10.8769 17.9625,10.8769 M13.8945,17.9389 C11.7385,17.9389 9.9855,16.1889 9.9855,14.0309 C9.9855,11.8689 11.7385,10.1199 13.8945,10.1199 C16.0545,10.1199 17.8075,11.8689 17.8075,14.0309 C17.8075,16.1889 16.0545,17.9389 13.8945,17.9389 M19.8305,9.5359 C19.6935,9.1829 19.5295,8.9329 19.2635,8.6659 C18.9985,8.3979 18.7415,8.2319 18.3875,8.0939 C18.1175,7.9889 17.7145,7.8669 16.9755,7.8319 C16.1705,7.7969 15.9265,7.7869 13.8945,7.7869 C11.8625,7.7869 11.6235,7.7969 10.8175,7.8319 C10.0745,7.8669 9.6715,7.9889 9.4055,8.0939 C9.0515,8.2319 8.7955,8.3979 8.5295,8.6659 C8.2635,8.9329 8.1005,9.1829 7.9585,9.5359 C7.8565,9.8119 7.7325,10.2119 7.6975,10.9519 C7.6615,11.7589 7.6525,11.9969 7.6525,14.0309 C7.6525,16.0639 7.6615,16.3049 7.6975,17.1059 C7.7325,17.8509 7.8565,18.2499 7.9585,18.5209 C8.1005,18.8739 8.2635,19.1289 8.5295,19.3979 C8.7955,19.6619 9.0515,19.8279 9.4055,19.9659 C9.6715,20.0709 10.0745,20.1929 10.8175,20.2299 C11.6235,20.2629 11.8625,20.2729 13.8945,20.2729 C15.9305,20.2729 16.1705,20.2629 16.9755,20.2299 C17.7145,20.1929 18.1175,20.0709 18.3875,19.9659 C18.7415,19.8279 18.9985,19.6619 19.2635,19.3979 C19.5295,19.1289 19.6935,18.8739 19.8305,18.5209 C19.9365,18.2499 20.0605,17.8509 20.0915,17.1059 C20.1315,16.3049 20.1405,16.0639 20.1405,14.0309 C20.1405,11.9969 20.1315,11.7589 20.0915,10.9519 C20.0605,10.2119 19.9365,9.8119 19.8305,9.5359" id="Fill-3"></path>
                        <path d="M21.464,17.165 C21.428,17.982 21.3,18.533 21.11,19.017 C20.915,19.515 20.654,19.94 20.234,20.363 C19.809,20.788 19.383,21.051 18.883,21.244 C18.401,21.434 17.843,21.561 17.033,21.595 C16.223,21.637 15.966,21.644 13.895,21.644 C11.827,21.644 11.57,21.637 10.756,21.595 C9.946,21.561 9.393,21.434 8.91,21.244 C8.41,21.051 7.981,20.788 7.56,20.363 C7.135,19.94 6.879,19.515 6.684,19.017 C6.493,18.533 6.365,17.982 6.33,17.165 C6.29,16.357 6.285,16.102 6.285,14.031 C6.285,11.963 6.29,11.703 6.33,10.892 C6.365,10.078 6.493,9.525 6.684,9.043 C6.879,8.54 7.135,8.113 7.56,7.69 C7.981,7.269 8.41,7.01 8.91,6.813 C9.393,6.629 9.946,6.501 10.756,6.461 C11.57,6.425 11.827,6.415 13.895,6.415 C15.966,6.415 16.223,6.425 17.033,6.461 C17.843,6.501 18.401,6.629 18.883,6.813 C19.383,7.01 19.809,7.269 20.234,7.69 C20.654,8.113 20.915,8.54 21.11,9.043 C21.3,9.525 21.428,10.078 21.464,10.892 C21.5,11.703 21.508,11.963 21.508,14.031 C21.508,16.102 21.5,16.357 21.464,17.165 M14.032,1.77635684e-15 C6.281,1.77635684e-15 0,6.28 0,14.029 C0,21.775 6.281,28.061 14.032,28.061 C21.778,28.061 28.064,21.775 28.064,14.029 C28.064,6.28 21.778,1.77635684e-15 14.032,1.77635684e-15" id="Fill-5"></path>
                    </g>
                </g>
            </g>
        </g>
    </g>
</svg>