<?xml version="1.0" encoding="UTF-8"?>
<svg width="29px" height="30px" viewBox="0 0 29 30" version="1.1" xmlns="http://www.w3.org/2000/svg" xmlns:xlink="http://www.w3.org/1999/xlink">
    <title>Fill 9</title>
    <g id="Page-1" stroke="none" stroke-width="1" fill="none" fill-rule="evenodd">
        <g id="Tree-Page-Copy" transform="translate(-226.000000, -656.000000)" fill="#5B7129">
            <g id="Group-32" transform="translate(108.000000, 602.000000)">
                <g id="Group-31" transform="translate(30.000000, 54.900000)">
                    <path d="M109.917,10.8037 C109.926,10.9497 109.93,11.0937 109.93,11.2387 C109.93,11.9077 109.851,12.5877 109.696,13.2657 C109.262,15.1917 108.222,17.0807 106.615,18.4827 C105.021,19.8737 102.879,20.7877 100.228,20.7877 C98.302,20.7877 96.509,20.2387 95,19.2827 C95.27,19.3127 95.535,19.3267 95.814,19.3267 C97.395,19.3267 98.842,18.8057 100.001,17.9267 C100.02,17.9127 100.01,17.8897 99.988,17.8897 C98.537,17.8417 97.311,16.8897 96.872,15.5887 C96.868,15.5757 96.876,15.5637 96.894,15.5637 C97.093,15.6057 97.297,15.6217 97.505,15.6217 C97.815,15.6217 98.12,15.5777 98.404,15.5027 C97.257,15.2787 96.328,14.4727 95.898,13.4287 C95.726,13.0057 95.677,12.3477 95.672,12.1997 C95.668,12.1887 95.681,12.1787 95.695,12.1867 C96.128,12.4147 96.62,12.5577 97.142,12.5857 C97.16,12.5857 97.168,12.5627 97.155,12.5477 C96.27,11.9407 95.695,10.9317 95.695,9.7947 C95.695,9.1897 95.863,8.6187 96.142,8.1297 C96.15,8.1187 96.168,8.1187 96.172,8.1277 C97.854,10.1477 100.36,11.4737 103.188,11.6157 C103.127,11.3677 103.096,11.1127 103.096,10.8487 C103.096,8.9947 104.627,7.4927 106.504,7.4927 C107.491,7.4927 108.376,7.9037 108.996,8.5567 C109.727,8.4087 110.413,8.1577 111.042,7.8057 C111.085,7.7827 111.134,7.8247 111.117,7.8687 C110.847,8.5947 110.329,9.2037 109.66,9.5967 C110.289,9.5237 110.891,9.3667 111.453,9.1387 C111.502,9.1187 111.55,9.1727 111.515,9.2127 C111.077,9.8277 110.537,10.3667 109.917,10.8037 M102.746,0.0757 C95,0.0757 88.714,6.3587 88.714,14.1077 C88.714,21.8537 95,28.1397 102.746,28.1397 C110.497,28.1397 116.783,21.8537 116.783,14.1077 C116.783,6.3587 110.497,0.0757 102.746,0.0757" id="Fill-9"></path>
                </g>
            </g>
        </g>
    </g>
</svg>